<svg width="86" height="290" viewBox="0 0 86 290" fill="none" xmlns="http://www.w3.org/2000/svg">
<path d="M57.9099 29.4111L57.9939 30.8203C58.2339 34.8204 59.0584 41.2913 60.7351 47.5479C62.453 53.958 64.9007 59.4904 67.9998 62.2637L68.0066 62.2705L68.0378 62.2988L68.0652 62.3232L68.1208 62.3789C69.8928 64.151 74.1227 70.072 79.6169 81.418L80.1531 82.5332L80.155 82.5381L80.7146 83.7227L80.7166 83.7266L80.7537 83.8057L80.7917 83.8867L80.8201 83.9727L80.8455 84.0508C81.3625 85.6018 82.1322 88.0929 82.7771 90.5693C83.3907 92.9255 83.9998 95.6592 83.9998 97.5C83.9998 99.4662 83.7179 101.461 83.5447 103.02C83.3574 104.705 83.2843 105.958 83.4587 107.006C83.5507 107.558 83.5966 108.705 83.6345 109.972C83.6762 111.363 83.7139 113.228 83.7468 115.444C83.8127 119.88 83.8626 125.77 83.9001 132.195C83.975 145.013 83.9977 159.996 83.9978 169.917C84.1653 172.375 84.3661 176.162 84.4246 179.714C84.4542 181.517 84.4488 183.293 84.3816 184.818C84.3242 186.119 84.21 187.443 83.9705 188.468C83.717 191.572 83.2994 196.25 82.8445 200.483C82.6117 202.65 82.3672 204.721 82.1277 206.415C81.9033 208.002 81.6475 209.543 81.3455 210.449C81.2036 210.875 81.0095 211.855 80.8494 213.357C80.6961 214.795 80.5923 216.532 80.5623 218.361C80.5018 222.049 80.7527 225.778 81.3699 228.116C83.1186 232.81 85.1227 240.567 85.6443 249.079C86.1704 257.665 85.2117 267.371 80.6091 275.48C79.7877 277.021 78.4001 279.286 76.8005 281.223C75.9903 282.204 75.0485 283.196 74.0251 283.967C73.1212 284.648 71.8346 285.4 70.3083 285.491L69.9998 285.5C68.4169 285.5 67.8092 285.698 66.0974 285.861C64.4785 286.015 62.6832 285.996 59.9119 285.441C57.1246 284.884 55.1161 283.7 53.8142 282.321C53.4401 282.917 53.0186 283.538 52.5525 284.147L52.1511 284.657C50.8197 286.292 48.8003 288.267 46.2283 288.91L46.1541 288.929L46.115 288.937L46.0798 288.943L46.0789 288.942C45.8618 288.986 45.5837 289.04 45.2742 289.096V289.5H43.7742C43.4903 289.5 43.1796 289.475 42.8855 289.445C42.5925 289.475 42.2829 289.5 41.9998 289.5H40.4998V289.096C40.1898 289.04 39.9113 288.986 39.6941 288.942V288.943L39.6589 288.937L39.6199 288.929L39.5457 288.91C37.1345 288.307 35.2089 286.534 33.8806 284.968L33.6228 284.657C32.9958 283.887 32.4378 283.084 31.9587 282.321C30.6568 283.7 28.6488 284.884 25.8621 285.441C23.0909 285.996 21.2952 286.015 19.6765 285.861C18.1788 285.719 17.5258 285.549 16.3259 285.509L15.7742 285.5C14.1126 285.5 12.7129 284.693 11.7488 283.967C10.7255 283.196 9.78357 282.204 8.97339 281.223C7.37381 279.286 5.98626 277.021 5.16479 275.48C0.56215 267.371 -0.396456 257.665 0.129639 249.079C0.651333 240.565 2.65515 232.808 4.40405 228.114C5.02086 225.776 5.27211 222.048 5.21167 218.361C5.18168 216.532 5.07778 214.795 4.92456 213.357C4.76441 211.855 4.57034 210.875 4.42847 210.449C4.12646 209.543 3.87059 208.002 3.64624 206.415C3.40674 204.721 3.16223 202.65 2.92944 200.483C2.4745 196.25 2.056 191.572 1.80249 188.468C1.563 187.443 1.4497 186.119 1.39233 184.818C1.32508 183.293 1.31971 181.517 1.34937 179.714C1.40779 176.162 1.60765 172.375 1.77515 169.917C1.77528 159.996 1.79894 145.013 1.87378 132.195C1.9113 125.77 1.96127 119.88 2.0271 115.444C2.05999 113.228 2.09773 111.363 2.1394 109.972C2.17735 108.705 2.22325 107.558 2.31519 107.006C2.4896 105.958 2.41652 104.705 2.22925 103.02C2.05607 101.461 1.77417 99.4662 1.77417 97.5C1.77417 95.6591 2.38324 92.9255 2.99683 90.5693C3.64173 88.0929 4.41148 85.6017 4.92847 84.0508L4.95386 83.9727L4.98218 83.8867L5.02026 83.8057L5.05737 83.7266L5.05933 83.7227L5.6189 82.5381L5.62085 82.5332C11.3755 70.4581 15.8241 64.208 17.6531 62.3789L17.7087 62.3232L17.7361 62.2988L17.7673 62.2705L17.7742 62.2637C20.8731 59.4903 23.321 53.9577 25.0388 47.5479C26.7155 41.2913 27.54 34.8203 27.78 30.8203L27.864 29.4111L27.948 28H57.8259L57.9099 29.4111ZM33.5408 34C33.1287 38.1973 32.2815 43.703 30.8347 49.1016C29.0905 55.6098 26.3147 62.6 21.8757 66.6406C20.7318 67.8024 16.4596 73.5694 10.5671 86.1113C10.0845 87.5713 9.38425 89.8434 8.80151 92.0811C8.16473 94.5263 7.77417 96.5416 7.77417 97.5C7.77417 99.0331 7.99186 100.535 8.19409 102.355C8.38113 104.039 8.55589 106.024 8.23706 107.966L8.23804 107.964V107.967L8.22729 108.076C8.21877 108.181 8.20982 108.331 8.19897 108.537C8.17798 108.936 8.15668 109.477 8.13647 110.151C8.09613 111.498 8.05983 113.329 8.0271 115.534C7.96168 119.943 7.91126 125.811 7.87378 132.23C7.79883 145.068 7.77417 160.087 7.77417 170V170.108L7.77026 170.165L7.76636 170.217L7.76538 170.216C7.60148 172.595 7.40656 176.335 7.34937 179.812C7.3207 181.554 7.32765 183.197 7.38745 184.554C7.45104 185.996 7.56563 186.847 7.65796 187.173L7.69897 187.315L7.74097 187.461L7.75269 187.612L7.7644 187.758L7.9812 190.339C8.22644 193.168 8.55012 196.639 8.89429 199.842C9.12398 201.979 9.36061 203.977 9.58667 205.575C9.82803 207.282 10.022 208.257 10.1199 208.551C10.4778 209.625 10.7215 211.146 10.8894 212.721C11.0642 214.361 11.1792 216.28 11.2117 218.264C11.2753 222.149 11.0332 226.619 10.1687 229.789L10.1677 229.788L10.1501 229.855L10.1306 229.929L10.1042 229.999L10.0789 230.065L10.0779 230.064C8.50931 234.223 6.60725 241.477 6.1189 249.446C5.62869 257.447 6.58519 265.82 10.3767 272.508L10.3875 272.526L10.4109 272.566L10.4314 272.607C11.1159 273.898 12.3046 275.835 13.5994 277.402C14.251 278.191 14.8545 278.794 15.3591 279.174C15.6173 279.368 15.7896 279.459 15.8767 279.496C15.8814 279.498 15.8863 279.5 15.8904 279.502C17.7601 279.514 19.3275 279.801 20.2468 279.889C21.2526 279.984 22.4597 280.004 24.6863 279.559C27.7753 278.94 27.9012 277.49 27.8152 278.006L28.2332 275.5H35.1931L35.9978 277.242H35.9988C36.4109 278.135 37.2333 279.589 38.2751 280.868L38.6843 281.348C39.6044 282.374 40.4081 282.92 40.9587 283.075C41.3477 283.152 41.928 283.259 42.4968 283.348C42.6308 283.368 42.7616 283.385 42.8865 283.402C43.0119 283.385 43.143 283.368 43.2771 283.348C43.8457 283.259 44.4254 283.152 44.8142 283.075C45.4452 282.897 46.4084 282.207 47.4988 280.868C48.5406 279.589 49.3631 278.135 49.7751 277.242H49.7761L50.5808 275.5H57.5408L57.9587 278.006C57.8727 277.49 57.998 278.94 61.0876 279.559C63.3145 280.004 64.5213 279.984 65.5271 279.889C66.4463 279.801 68.0132 279.514 69.8826 279.502C69.8869 279.5 69.8922 279.498 69.8972 279.496C69.9843 279.458 70.1568 279.368 70.4148 279.174C70.9194 278.794 71.523 278.191 72.1746 277.402C73.4694 275.834 74.6581 273.898 75.3425 272.607L75.363 272.566L75.3865 272.526L75.3972 272.508C79.1887 265.82 80.1452 257.447 79.655 249.446C79.1667 241.476 77.2637 234.223 75.6951 230.064L75.6697 229.999L75.6433 229.929L75.6238 229.855L75.6052 229.788V229.789C74.7407 226.619 74.4986 222.149 74.5623 218.264C74.5948 216.28 74.7097 214.361 74.8845 212.721C75.0524 211.146 75.2961 209.625 75.6541 208.551C75.7519 208.256 75.9459 207.282 76.1873 205.575C76.4133 203.977 76.6499 201.979 76.8796 199.842C77.3385 195.571 77.7609 190.824 78.0095 187.758L78.0212 187.612L78.033 187.461L78.075 187.315L78.116 187.173C78.2083 186.847 78.3229 185.996 78.3865 184.554C78.4463 183.197 78.4532 181.554 78.4246 179.812C78.3674 176.335 78.1715 172.595 78.0076 170.216L78.0037 170.165L77.9998 170.108V170C77.9998 160.087 77.9751 145.068 77.9001 132.23C77.8627 125.811 77.8122 119.943 77.7468 115.534C77.7141 113.329 77.6778 111.498 77.6375 110.151C77.6172 109.477 77.5959 108.936 77.575 108.537L77.5466 108.076L77.5359 107.967V107.966C77.2171 106.024 77.3928 104.039 77.5798 102.355C77.7821 100.535 77.9998 99.0331 77.9998 97.5C77.9998 96.5416 77.6092 94.5263 76.9724 92.0811C76.3896 89.8432 75.6884 87.5713 75.2058 86.1113C69.3128 73.5683 65.0406 67.8017 63.8972 66.6406C59.4584 62.6 56.6834 55.6096 54.9392 49.1016C53.4924 43.7029 52.6452 38.1973 52.2332 34H33.5408ZM53.9998 0C55.6835 0.000166801 56.8627 1.04645 57.5271 1.86328C58.2193 2.71452 58.6721 3.69198 58.8972 4.36719L58.8992 4.37305L58.9246 4.4502L58.9998 4.67871V22H25.9998V5C25.9998 3.31602 27.0461 2.1371 27.863 1.47266C28.7142 0.780568 29.6917 0.327665 30.3669 0.102539L30.3728 0.100586L30.45 0.0751953L30.6785 0H53.9998ZM31.3738 4C31.0639 4.13169 30.6874 4.33244 30.3865 4.57715C30.1906 4.73651 30.0834 4.86551 30.032 4.94922C30.0111 4.98325 30.003 5.00511 29.9998 5.01465V18H54.9998V5.37109C54.868 5.06186 54.6668 4.68706 54.4226 4.38672C54.2633 4.19095 54.1343 4.08371 54.0505 4.03223C54.0158 4.0109 53.9934 4.00302 53.9841 4H31.3738Z" fill="black"/>
</svg>
