<svg width="86" height="290" viewBox="0 0 86 290" fill="none" xmlns="http://www.w3.org/2000/svg">
<path d="M57.9099 29.4111L57.9939 30.8203C58.2339 34.8204 59.0584 41.2913 60.7351 47.5479C62.453 53.958 64.9007 59.4904 67.9998 62.2637L68.0066 62.2705L68.0378 62.2988L68.0652 62.3232L68.1208 62.3789C69.8928 64.1511 74.1228 70.0721 79.6169 81.418L80.1531 82.5332L80.155 82.5381L80.7146 83.7227L80.7166 83.7266L80.7537 83.8057L80.7917 83.8867L80.8201 83.9727L80.8455 84.0508C81.3625 85.6018 82.1322 88.093 82.7771 90.5693C83.3907 92.9255 83.9998 95.6592 83.9998 97.5C83.9998 99.4662 83.7179 101.461 83.5447 103.02C83.3574 104.706 83.2842 105.959 83.4587 107.007C83.5506 107.559 83.5966 108.705 83.6345 109.972C83.6762 111.363 83.7139 113.228 83.7468 115.444C83.8127 119.88 83.8626 125.77 83.9001 132.195C83.975 145.013 83.9977 159.996 83.9978 169.917C84.1653 172.375 84.3661 176.162 84.4246 179.714C84.4542 181.517 84.4488 183.293 84.3816 184.818C84.3242 186.119 84.21 187.443 83.9705 188.468C83.717 191.572 83.2994 196.25 82.8445 200.483C82.6117 202.65 82.3672 204.721 82.1277 206.415C81.9033 208.002 81.6474 209.543 81.3455 210.449C81.2036 210.875 81.0095 211.855 80.8494 213.357C80.6961 214.795 80.5923 216.532 80.5623 218.361C80.5018 222.049 80.7527 225.778 81.3699 228.116C83.1186 232.81 85.1227 240.567 85.6443 249.079C86.1704 257.665 85.2117 267.371 80.6091 275.48C79.7877 277.021 78.4001 279.286 76.8005 281.223C75.9903 282.204 75.0484 283.196 74.0251 283.967C73.1212 284.648 71.8346 285.4 70.3083 285.491L69.9998 285.5C68.4169 285.5 67.8091 285.698 66.0974 285.861C64.4786 286.015 62.6832 285.996 59.9119 285.441C57.1246 284.884 55.1161 283.7 53.8142 282.321C53.4401 282.917 53.0186 283.538 52.5525 284.147L52.1511 284.657C50.8197 286.292 48.8002 288.267 46.2283 288.91L46.1541 288.929L46.115 288.937L46.0798 288.943L46.0789 288.942C45.8618 288.986 45.5837 289.04 45.2742 289.096V289.5H43.7742C43.4903 289.5 43.1796 289.475 42.8855 289.445C42.5925 289.475 42.2829 289.5 41.9998 289.5H40.4998V289.096C40.1898 289.04 39.9113 288.986 39.6941 288.942V288.943L39.6589 288.937L39.6199 288.929L39.5457 288.91C37.1346 288.307 35.2089 286.534 33.8806 284.968L33.6228 284.657C32.9958 283.887 32.4378 283.084 31.9587 282.321C30.6568 283.7 28.6487 284.884 25.8621 285.441C23.0909 285.996 21.2952 286.015 19.6765 285.861C18.1788 285.719 17.5258 285.549 16.3259 285.509L15.7742 285.5C14.1126 285.5 12.7129 284.693 11.7488 283.967C10.7255 283.196 9.78356 282.204 8.97339 281.223C7.37382 279.286 5.98626 277.021 5.16479 275.48C0.56215 267.371 -0.396456 257.665 0.129639 249.079C0.651333 240.565 2.65515 232.808 4.40405 228.114C5.02086 225.776 5.2721 222.048 5.21167 218.361C5.18168 216.532 5.07778 214.795 4.92456 213.357C4.76441 211.855 4.57035 210.875 4.42847 210.449C4.12646 209.543 3.87059 208.002 3.64624 206.415C3.40674 204.721 3.16223 202.65 2.92944 200.483C2.4745 196.25 2.056 191.572 1.80249 188.468C1.563 187.443 1.4497 186.119 1.39233 184.818C1.32508 183.293 1.31971 181.517 1.34937 179.714C1.40779 176.162 1.60765 172.375 1.77515 169.917C1.77528 159.996 1.79894 145.013 1.87378 132.195C1.9113 125.77 1.96127 119.88 2.0271 115.444C2.05999 113.228 2.09773 111.363 2.1394 109.972C2.17735 108.705 2.22325 107.558 2.31519 107.006C2.4896 105.958 2.41652 104.705 2.22925 103.02C2.05607 101.461 1.77417 99.4662 1.77417 97.5C1.77417 95.6591 2.38324 92.9255 2.99683 90.5693C3.64173 88.093 4.41148 85.6017 4.92847 84.0508L4.95386 83.9727L4.98218 83.8867L5.02026 83.8057L5.05737 83.7266L5.05933 83.7227L5.6189 82.5381L5.62085 82.5332C5.66383 82.443 5.70692 82.3532 5.74976 82.2637V82.25H5.75659C11.4456 70.3604 15.8384 64.1936 17.6531 62.3789L17.7087 62.3232L17.7361 62.2988L17.7673 62.2705L17.7742 62.2637C20.873 59.4903 23.321 53.9577 25.0388 47.5479C26.7155 41.2913 27.54 34.8203 27.78 30.8203L27.864 29.4111L27.948 28H57.8259L57.9099 29.4111ZM33.5408 34C33.1287 38.1973 32.2815 43.703 30.8347 49.1016C29.0905 55.6098 26.3147 62.6 21.8757 66.6406C20.8565 67.6758 17.355 72.3678 12.4353 82.25H73.3376C68.4176 72.3669 64.9161 67.6753 63.8972 66.6406C59.4584 62.6 56.6834 55.6096 54.9392 49.1016C53.4924 43.7029 52.6452 38.1973 52.2332 34H33.5408ZM53.9998 0C55.6835 0.000166801 56.8627 1.04645 57.5271 1.86328C58.2193 2.71452 58.6721 3.69198 58.8972 4.36719L58.8992 4.37305L58.9246 4.4502L58.9998 4.67871V22H25.9998V5C25.9998 3.31602 27.0461 2.1371 27.863 1.47266C28.7142 0.780568 29.6917 0.327665 30.3669 0.102539L30.3728 0.100586L30.45 0.0751953L30.6785 0H53.9998ZM31.3738 4C31.0639 4.13169 30.6874 4.33244 30.3865 4.57715C30.1906 4.73651 30.0834 4.86551 30.032 4.94922C30.0111 4.98325 30.003 5.00511 29.9998 5.01465V18H54.9998V5.37109C54.868 5.06186 54.6668 4.68706 54.4226 4.38672C54.2633 4.19095 54.1343 4.08371 54.0505 4.03223C54.0158 4.0109 53.9934 4.00302 53.9841 4H31.3738Z" fill="black"/>
</svg>
