<svg width="290" height="188" viewBox="0 0 290 188" fill="none" xmlns="http://www.w3.org/2000/svg">
<path d="M1.5 58.8603C1.5 -19.6201 288.5 -19.6201 288.5 58.8603H1.5Z" fill="#E0A15A"/>
<path d="M99.2328 32.8376C102.117 32.8376 104.454 31.7738 104.454 30.4615C104.454 29.1493 102.117 28.0854 99.2328 28.0854C96.349 28.0854 94.0112 29.1493 94.0112 30.4615C94.0112 31.7738 96.349 32.8376 99.2328 32.8376Z" fill="#FFF8E1"/>
<path d="M150.437 21.7827C153.321 21.7827 155.658 20.7189 155.658 19.4066C155.658 18.0943 153.321 17.0305 150.437 17.0305C147.553 17.0305 145.215 18.0943 145.215 19.4066C145.215 20.7189 147.553 21.7827 150.437 21.7827Z" fill="#FFF8E1"/>
<path d="M188.302 42.6975C191.186 42.6975 193.523 41.6337 193.523 40.3214C193.523 39.0091 191.186 37.9453 188.302 37.9453C185.418 37.9453 183.08 39.0091 183.08 40.3214C183.08 41.6337 185.418 42.6975 188.302 42.6975Z" fill="#FFF8E1"/>
<path d="M119.011 46.29C121.174 46.29 122.928 45.4921 122.928 44.5079C122.928 43.5237 121.174 42.7258 119.011 42.7258C116.849 42.7258 115.095 43.5237 115.095 44.5079C115.095 45.4921 116.849 46.29 119.011 46.29Z" fill="#FFF8E1"/>
<path d="M174.518 32.8449C176.681 32.8449 178.434 32.047 178.434 31.0628C178.434 30.0786 176.681 29.2808 174.518 29.2808C172.355 29.2808 170.602 30.0786 170.602 31.0628C170.602 32.047 172.355 32.8449 174.518 32.8449Z" fill="#FFF8E1"/>
<path d="M14.4599 62.8604C31.8652 70.7807 49.2706 70.7807 66.6759 62.8604C84.0813 70.7807 101.487 70.7807 118.892 62.8604C136.297 70.7807 153.703 70.7807 171.108 62.8604C188.513 70.7807 205.919 70.7807 223.324 62.8604C240.729 70.7807 258.135 70.7807 275.54 62.8604V80.681H14.4599V62.8604Z" fill="#A0CFA0"/>
<path d="M265.097 84.6809H24.9031C22.7402 84.6809 20.9869 86.2766 20.9869 88.245V97.7494C20.9869 99.7178 22.7402 101.314 24.9031 101.314H265.097C267.26 101.314 269.013 99.7178 269.013 97.7494V88.245C269.013 86.2766 267.26 84.6809 265.097 84.6809Z" fill="#FFD966"/>
<path d="M254.654 105.314H35.3463C23.8111 105.314 14.4599 113.824 14.4599 124.322C14.4599 134.821 23.8111 143.331 35.3463 143.331H254.654C266.189 143.331 275.54 134.821 275.54 124.322C275.54 113.824 266.189 105.314 254.654 105.314Z" fill="#7B5E4B"/>
<path d="M7.93286 147.331H282.067V165.152C282.067 194.853 7.93286 194.853 7.93286 165.152V147.331Z" fill="#E0A15A"/>
</svg>
