<svg width="341" height="564" viewBox="0 0 341 564" fill="none" xmlns="http://www.w3.org/2000/svg">
<path d="M129.375 97.5059C141.794 109.772 159.538 114.108 170.674 114.506C181.805 114.405 199.658 110.297 211.878 97.5059M129.375 97.5059C120.976 89.2107 115.012 77.2888 115.174 60.5059C115.574 18.9059 152.34 6.17253 170.674 5.00586C188.674 5.67253 224.774 17.7059 225.174 60.5059C225.331 77.3189 219.783 89.23 211.878 97.5059M129.375 97.5059C100.641 105.173 40.5736 133.606 30.1736 186.006L6.67362 309.006C3.00695 318.006 2.97362 338.106 32.1736 346.506M32.1736 346.506C39.6736 304.506 58.0736 220.106 71.6736 218.506M32.1736 346.506L21.1736 421.506C21.1736 427.839 23.3736 440.606 32.1736 441.006C37.3529 441.241 100.981 441.257 170.337 441.197M71.6736 218.506C71.3403 207.339 73.6736 183.806 85.6736 179.006M71.6736 218.506C73.8403 226.506 79.6736 242.806 85.6736 244.006M308.174 346.506C310.174 364.506 314.974 404.706 318.174 421.506C321.374 438.306 311.507 441.506 306.174 441.006C298.908 441.02 291.026 441.034 282.674 441.048M308.174 346.506C301.507 306.173 284.674 224.106 270.674 218.506M308.174 346.506C318.84 344.173 339.174 333.406 335.174 309.006C331.174 284.606 317.84 216.839 311.674 186.006C300.31 161.339 264.441 109.106 211.878 97.5059M270.674 218.506C270.174 208.673 266.474 187.006 255.674 179.006M270.674 218.506C268.34 225.006 262.074 239.206 255.674 244.006M61.6736 442.506L91.6736 536.006C101.507 552.673 130.774 576.006 169.174 536.006M169.174 536.006L170.337 441.197M169.174 536.006C187.34 552.673 228.874 576.006 249.674 536.006L282.674 441.048M170.337 441.197C209.055 441.163 249.558 441.105 282.674 441.048" stroke="black" stroke-width="10"/>
</svg>
