<svg width="343" height="565" viewBox="0 0 343 565" fill="none" xmlns="http://www.w3.org/2000/svg">
<path d="M129.16 97.002C141.664 110.759 159.903 115.002 171.082 115.002C182.945 115.106 202.059 110.948 214.355 97.002M129.16 97.002C121.531 88.6088 116.037 76.6745 115.582 60.0019C114.382 16.0019 152.082 5.0019 171.082 5.0019C188.749 4.83523 224.482 15.6019 226.082 60.0019C226.683 76.6797 221.753 88.6121 214.355 97.002M129.16 97.002C101.301 104.335 42.8819 131.902 32.0819 183.502C21.2819 235.102 9.91522 289.335 5.58189 310.002C3.24855 323.335 6.68188 349.302 39.0819 346.502M39.0819 346.502C33.8819 298.502 59.5819 236.502 73.0819 211.502M39.0819 346.502C43.7486 379.502 61.4819 464.602 95.0819 541.002C107.415 556.002 139.582 575.202 169.582 532.002M169.582 532.002V361.002M169.582 532.002C183.915 550.669 218.882 578.602 244.082 541.002L296.582 389.002C298.775 376.003 302.851 350.523 302.671 346.502M169.582 361.002H151.082H188.082H189.582H169.582ZM268.082 211.502C299.082 237.002 301.582 344.502 302.582 346.002C302.63 346.074 302.659 346.244 302.671 346.502M302.671 346.502C330.342 346.902 337.475 322.335 337.582 310.002L311.582 186.502C305.264 162.835 276.974 111.802 214.355 97.002" stroke="black" stroke-width="10"/>
</svg>
